<?xml version="1.0" encoding="utf-8"?>
<!-- Generator: Adobe Illustrator 22.0.1, SVG Export Plug-In . SVG Version: 6.00 Build 0)  -->
<svg version="1.1" id="Layer_1" xmlns="http://www.w3.org/2000/svg" xmlns:xlink="http://www.w3.org/1999/xlink" x="0px" y="0px"
	 viewBox="0 0 500 500" style="enable-background:new 0 0 500 500;" xml:space="preserve">
<style type="text/css">
	.st0{fill:#1E959F;}
	.st1{fill:#FFFFFF;}
	.st2{fill:#FFFFFF;stroke:#FFFFFF;stroke-width:2;stroke-miterlimit:10;}
</style>
<circle class="st0" cx="250" cy="250" r="221.5"/>
<g>
	<path class="st2" d="M292.3,377.9c-31.1,7.1-55.9,24.7-82.3,39c-0.5-0.6-1-1.3-1.5-1.9c1.3-1.8,2.2-4.1,3.8-5.5
		c9.2-8,18.3-16.2,27.9-23.5c21.3-16.2,43-32,64.5-47.9c1.1-0.8,2.2-1.7,3.3-2.6c-0.2-0.6-0.4-1.1-0.6-1.7
		c-7.8,2.2-15.9,3.9-23.5,6.7c-29.1,10.7-56.3,25.1-82.4,41.8c-6.3,4-12.6,8.1-18.9,12c-1.4,0.9-3,1.5-4.6,2.2
		c-0.4-0.4-0.9-0.8-1.3-1.2c1.2-1.8,2.1-4,3.7-5.3c9.5-7.9,18.8-16,28.8-23.2c16-11.4,32.6-21.9,48.6-33.2c4.2-3,7.7-7.4,10.7-11.8
		c4.5-6.4,8.3-13.4,11.9-20.4c-44.3,14.7-82.1,41.4-122.2,63.7c-0.5-0.7-1.1-1.4-1.6-2.1c1.3-1.5,2.5-3.2,4.1-4.4
		c17.5-13.3,35-26.5,52.5-39.7c23.2-17.5,46.4-34.9,69.6-52.3c0.5-0.4,0.9-0.9,1.4-1.3c-0.2-0.4-0.4-0.8-0.6-1.2
		c-7.7,3.4-15.7,6.2-23,10.3c-23.2,13-46.2,26.6-69.2,39.9c-2.1,1.2-4.3,2.4-6.5,3.6c-0.5-0.5-0.9-0.9-1.4-1.4
		c1.1-1.5,1.9-3.3,3.3-4.4c9.9-8.2,20-16.1,29.9-24.3c9.8-8,19.4-16.1,29.2-24.2c-0.2-0.3-0.5-0.7-0.7-1c-5,3.1-10,6.2-15.1,9.2
		c-7,4.1-14.1,8.1-21.2,11.9c-1.8,1-4.3,0.8-6.4,1.1c-0.3-0.5-0.5-1-0.8-1.6c1.6-2.2,2.9-4.5,4.8-6.4c13.4-13.9,27-27.7,40.4-41.7
		c3-3.1,5.5-6.6,8.3-9.9c-0.3-0.5-0.6-0.9-0.9-1.4c-2.1,0.8-4.3,1.4-6.4,2.4c-11.5,5.6-23,11.4-34.5,17c-3.1,1.5-6.2,2.7-9.5,3.8
		c-1,0.3-2.3-0.3-3.5-0.5c0.5-1.1,0.7-2.5,1.5-3.2c2-1.9,4.3-3.5,6.4-5.3c17.4-14.8,34.8-29.7,52.3-44.5c-0.3-0.5-0.6-1-0.9-1.4
		c-22.1,12.4-44.2,24.7-66.2,37.1c-0.4-0.5-0.8-1-1.2-1.5c1.1-1.3,2.1-2.8,3.4-3.8c21.4-15.9,42.9-31.6,64.2-47.5
		c5.4-4,10.6-8.4,15.5-13.8c-2,0.5-4.3,0.6-6.1,1.5c-14.1,7-28.2,13.9-42.1,21.3c-16,8.6-31.8,17.6-47.8,26.4
		c-0.8,0.5-1.7,1-2.7,1.2c-0.8,0.2-1.8,0-2.7,0c0.2-1,0-2.4,0.6-2.9c3.8-3.3,7.7-6.4,11.6-9.6c20.1-16.5,40.1-33,60.2-49.5
		c0.7-0.6,1.3-1.4,2.7-3c-25.7,9.8-48,23.5-69.3,39c-0.5-0.6-0.9-1.1-1.4-1.7c0.9-1.2,1.6-2.7,2.8-3.6
		c16.7-13.7,33.5-27.3,50.3-40.9c5.4-4.4,10.8-8.8,17.2-14c-22.6,4.9-39.8,18.7-59.4,27.1c-0.4-0.7-0.9-1.3-1.3-2
		c8.9-6.8,17.8-13.6,26.7-20.4c-0.2-0.4-0.5-0.7-0.7-1.1c-3.6,1.9-7.2,4-11,5.6c-1.6,0.7-3.7,0.3-5.6,0.4c1.1-1.4,1.9-3,3.2-4.1
		c6.4-5.2,13-10.2,19.6-15.2c-0.2-0.4-0.5-0.7-0.7-1.1c-4.7,3.3-9.4,6.5-14.5,10.1c0.2-5.6,21-19.2,27.1-18.1
		c-3.9,8.4-12.6,11.8-18.4,18.5c6.9-2.3,12.3-8.2,19.7-8.1c0.3,0.6,0.6,1.3,0.9,1.9c-8,6.1-16,12.2-24.1,18.2
		c0.2,0.2,0.3,0.5,0.5,0.7c4.1-2.1,8.1-4.6,12.4-6.3c8.7-3.4,17.6-6.5,26.5-9.5c1.2-0.4,2.7,0.2,4,0.4c-0.6,1.3-0.8,3.1-1.9,3.9
		c-13.9,11.3-27.8,22.4-41.8,33.6c-1.1,0.9-2.2,1.8-3.2,3c15.4-7.1,29.9-16.1,46.3-20.7c0.5,0.5,0.9,1.1,1.4,1.6
		c-1.3,1.8-2.2,4-3.9,5.4c-13.2,11.5-26.4,23.1-39.9,34.3c-7.5,6.3-15.3,12-22.7,18.8c1.5-0.8,3-1.6,4.5-2.4
		c21.8-12,43.5-24.1,65.4-35.8c5.1-2.7,10.9-4.3,16.4-6c1.6-0.5,3.5,0.4,5.3,0.6c-0.8,1.8-1,4.2-2.4,5.4
		c-6.8,5.8-13.8,11.4-20.9,16.7c-11.9,8.9-24,17.6-35.8,26.8c16-7.3,30.4-17.9,47.6-22.4c0.5,0.7,0.9,1.4,1.4,2.2
		c-19.3,17.8-40.3,33.7-59.3,52.2c5.7-2.9,11.3-5.9,17-8.7c7.5-3.6,14.9-7.1,22.5-10.4c2.4-1,5.2-1.2,7.8-1.7
		c0.4,0.5,0.9,0.9,1.3,1.4c-1.8,3.4-3.1,7.4-5.6,10.1c-11.4,12-23.2,23.7-34.8,35.6c-4,4.1-7.6,8.4-10.8,13.6
		c4.5-2.5,9.1-4.9,13.6-7.6c9.2-5.5,18.3-11.2,27.5-16.7c1.7-1,3.8-1.3,6.2-1c-14.5,18.4-34,31-50.8,46.7c2-1.2,4-2.3,6.1-3.5
		c19-10.5,38-21.2,57.2-31.5c4.7-2.5,9.9-4.1,15-5.7c2.5-0.8,5.2-0.6,7.9-0.8c0.3,0.5,0.5,1.1,0.8,1.6c-1.7,1.7-3.3,3.5-5.3,5
		c-18.4,13.9-36.9,27.7-55.3,41.5c-18.3,13.8-36.5,27.6-54.4,42.1c6.1-3.7,12.3-7.5,18.4-11.2c27.3-16.5,55.2-31.7,85.2-42.7
		c1.9-0.7,3.7-3,4.7-5c10.9-20.4,16.6-42.6,22.8-64.7c4.2-15.2,9-30.2,18.7-43.1c6-8,13-13.7,23.9-13.6c5.6,0.1,8.6,2.9,9.3,7.4
		c2.8,20.1,6.1,40.4-4.1,59.6c-1,1.9-2.4,3.5-3.6,5.3c-0.5-0.2-1-0.5-1.5-0.7c0.4-1.2,0.6-2.4,1.2-3.4c5.6-9.8,8.4-20.4,7.8-31.7
		c-0.4-7-0.3-14-1.3-20.9c-0.6-4.1-1.8-10.2-4.5-11.5c-4.9-2.3-11.3-1.3-16.1,2.5c-3.3,2.6-6.2,5.8-8.7,9.1
		c-8,10.5-12.7,22.5-16.3,35.1c-6.9,24.2-12.7,48.8-24.5,71.3c-0.1,0.2,0,0.6,0,1.4c13-3.5,25.7-8.8,41.1-7.1c-2,2.3-2.9,4-4.3,4.9
		c-15.3,10.7-30.6,21.3-46.1,31.8c-8.1,5.4-16.5,10.2-22.9,17.9c-2.6,3.2-6.2,7.9-12.1,4.8c-0.4-0.2-1.5,0.6-2.1,1
		c-16.1,11.6-32.1,23.2-48.2,34.8c-0.5,0.3-0.8,0.9-0.8,1.9c6-3.7,11.9-7.5,18-11.2c25.7-15.5,52.2-29.1,80.8-38.4
		c5.2-1.7,10.7-2.5,16.2-3.3c1.7-0.3,3.6,0.8,5.3,1.3c-0.9,1.5-1.4,3.6-2.7,4.6c-13,9.5-26.3,18.6-39,28.4
		c-17.2,13.1-33.9,26.7-50.9,40.1c-0.6,0.5-1,1.1-1,2.3c5.3-3,10.6-5.9,15.8-9.1c16-9.6,32.7-17.5,50.5-22.8c2.5-0.7,5-1.5,7.6-1.8
		c1.4-0.2,2.9,0.6,4.3,0.9c-0.7,1.2-1,2.8-2,3.5c-5.8,4.4-11.8,8.6-17.7,12.9c-6.6,4.9-13.1,10-20.4,15.6c2.8-0.2,4.5-0.2,6.1-0.3
		c0.2,0.5,0.5,0.9,0.7,1.4c-5.7,4.9-11.3,9.8-17,14.7c-0.5-0.5-1.1-1.1-1.6-1.6c2.9-2.9,5.8-5.8,8.8-8.8c-3-2.3-1.7-4.6,0.5-6.4
		c7-5.8,14.1-11.4,21.4-17C281,385.8,286.2,382.3,292.3,377.9z M322.4,291.8c-0.3-0.7-0.7-1.4-1-2c-12.1,1.2-23.7,4.7-35,8.9
		c-0.8,0.3-1.6,1.2-2,1.9c-4.5,8.1-8.8,16.3-14,25.8C288.4,314.4,305.4,303.1,322.4,291.8z"/>
	<path class="st2" d="M257.6,107.7c-1.9-2.9,0.6-4.6,3-6.2c8.8-6.1,17.8-12,26.6-18.1c4.9-3.4,9.7-7.1,14.6-10.5
		c1.1-0.7,2.6-0.8,3.9-1.2c0.3,1.5,1.4,3.3,0.9,4.4c-2.8,6.7-5.7,13.4-9.1,19.8c-3.3,6.3-7.4,12.2-10.8,18.5
		c-1.8,3.4-2.9,7.1-4.4,10.7c-0.4,1-1.2,1.9-1.9,2.8c-0.6-0.3-1.2-0.5-1.8-0.8c1.1-3.5,1.8-7.3,3.5-10.5c5.4-10,11.4-19.7,16.9-29.6
		c1.9-3.5,3.4-7.2,4.1-11.4C288,86.3,272.9,96.9,257.6,107.7z"/>
	<path class="st2" d="M131.4,103.5c1.8,0.3,3.4,0.3,4.9,0.8c12,3.9,24.1,7.9,36.1,11.9c4.2,1.4,7.3,4,9.5,8.5
		c-1.3,0.1-2,0.3-2.2,0.1c-7.1-7.5-17.3-8.5-26.3-11.9c-6.3-2.4-12.9-4.1-20.4-6.4c3.1,17.3,15.2,30.1,19.3,46.5
		C146.4,150.3,130,111.8,131.4,103.5z"/>
</g>
</svg>
