<svg id="Layer_1" data-name="Layer 1" xmlns="http://www.w3.org/2000/svg" viewBox="0 0 350 500"><defs><style>.cls-1{fill:#4d4d4d;stroke:#4e4d4d;stroke-miterlimit:10;stroke-width:5px;}</style></defs><title>logo-white copy</title><path class="cls-1" d="M236,428.7c-43,9.78-77.23,34.09-113.58,53.8l-2.09-2.62c1.74-2.55,3-5.6,5.3-7.56,12.7-11,25.2-22.29,38.56-32.45,29.42-22.37,59.32-44.12,89-66.13,1.54-1.14,3-2.34,4.57-3.52l-.9-2.29c-10.82,3-21.9,5.37-32.42,9.22-40.2,14.71-77.78,34.7-113.79,57.74-8.69,5.56-17.36,11.14-26.11,16.61a59.25,59.25,0,0,1-6.32,3l-1.8-1.72c1.69-2.47,2.93-5.48,5.15-7.31,13.11-10.87,26-22.13,39.81-32,22.06-15.74,45-30.22,67.12-45.89,5.85-4.14,10.62-10.25,14.78-16.22a245.39,245.39,0,0,0,16.4-28.22C158.55,343.5,106.31,380.32,51,411.08l-2.2-2.85c1.85-2,3.44-4.4,5.6-6q36.18-27.48,72.53-54.76,48-36.13,96.15-72.23a24.8,24.8,0,0,0,1.93-1.78l-.78-1.68c-10.62,4.69-21.7,8.56-31.78,14.22-32,18-63.71,36.67-95.54,55.07-2.95,1.7-6,3.29-8.95,4.93-.63-.62-1.25-1.25-1.88-1.88,1.48-2.06,2.61-4.55,4.5-6.11,13.67-11.26,27.56-22.27,41.26-33.49,13.48-11,26.84-22.24,40.25-33.37-.33-.47-.65-.94-1-1.4-7,4.23-13.84,8.57-20.88,12.66-9.69,5.62-19.4,11.23-29.32,16.43-2.54,1.32-5.89,1.09-8.87,1.57-.35-.72-.7-1.44-1-2.16,2.18-3,4.06-6.23,6.6-8.87,18.52-19.23,37.24-38.28,55.74-57.53,4.12-4.28,7.64-9.14,11.43-13.73l-1.23-1.87a91.45,91.45,0,0,0-8.79,3.26C158.8,227.26,143,235.22,127.05,243A107.84,107.84,0,0,1,114,248.23c-1.37.46-3.17-.39-4.78-.64.68-1.51,1-3.4,2.11-4.46,2.75-2.63,5.91-4.81,8.82-7.28q36.09-30.71,72.14-61.44l-1.18-2L99.65,223.68,98,221.55c1.56-1.75,2.86-3.85,4.71-5.21,29.52-21.91,59.16-43.66,88.67-65.59a145.22,145.22,0,0,0,21.33-19c-2.81.68-5.88.86-8.4,2.11-19.46,9.68-39,19.25-58.14,29.47-22.16,11.82-44,24.28-65.94,36.44a15,15,0,0,1-3.68,1.63,16.12,16.12,0,0,1-3.68.06c.28-1.37.07-3.28.9-4,5.21-4.58,10.67-8.89,16-13.3Q131.32,150,172.83,115.8a50.86,50.86,0,0,0,3.79-4.19C141.13,125.17,110.3,144,80.89,165.48L79,163.12c1.28-1.69,2.27-3.72,3.86-5q34.65-28.31,69.43-56.42c7.46-6.05,14.9-12.12,23.8-19.36-31.27,6.76-55,25.85-82,37.41L92.27,117,129.14,88.9l-1-1.48c-5,2.63-10,5.55-15.17,7.75-2.26,1-5.14.42-7.74.56,1.48-1.9,2.66-4.16,4.48-5.62,8.9-7.12,18-14,27-21l-1-1.47-20,13.93c.3-7.68,28.94-26.46,37.4-25-5.43,11.59-17.44,16.27-25.35,25.57,9.57-3.17,17-11.28,27.15-11.21l1.29,2.64L123,98.76l.62,1c5.68-3,11.15-6.4,17.07-8.73,12.07-4.74,24.36-9,36.64-13.15,1.58-.54,3.66.35,5.51.57-.83,1.83-1.17,4.27-2.57,5.41-19.14,15.57-38.43,31-57.68,46.41a26.56,26.56,0,0,0-4.39,4.12c21.22-9.84,41.3-22.26,64-28.53.62.76,1.25,1.51,1.88,2.27-1.76,2.51-3.1,5.51-5.34,7.47-18.23,15.92-36.49,31.82-55,47.37-10.31,8.64-21.19,16.59-31.31,25.95,2.09-1.1,4.2-2.16,6.27-3.29,30.05-16.54,60-33.28,90.22-49.47,7-3.76,15-5.87,22.68-8.22,2.17-.67,4.9.51,7.37.84-1,2.51-1.4,5.83-3.25,7.39-9.39,8-19,15.71-28.86,23.09-16.45,12.32-33.15,24.31-49.37,37.06,22.08-10,41.95-24.77,65.66-30.9l1.95,3c-26.62,24.59-55.65,46.48-81.81,72,7.81-4,15.55-8.18,23.45-12,10.29-5,20.63-9.85,31.11-14.39,3.3-1.43,7.12-1.64,10.71-2.41l1.83,1.93c-2.55,4.68-4.25,10.17-7.79,13.91-15.73,16.63-32,32.7-48,49.11a108.57,108.57,0,0,0-14.89,18.77c6.26-3.47,12.61-6.77,18.75-10.43,12.71-7.59,25.26-15.44,38-23a13,13,0,0,1,8.54-1.39C164.82,285.89,138,303.23,114.78,325c2.79-1.6,5.55-3.23,8.36-4.79,26.28-14.54,52.48-29.24,78.94-43.46,6.46-3.47,13.68-5.64,20.74-7.83,3.4-1.06,7.23-.8,10.86-1.14l1.1,2.17c-2.41,2.31-4.62,4.89-7.27,6.88C202.09,296,176.57,315,151.13,334.17c-25.25,19-50.44,38.1-75.08,58.09q12.7-7.71,25.41-15.43c37.64-22.8,76.22-43.7,117.64-59,2.68-1,5-4.2,6.5-6.94,15-28.16,23-58.84,31.42-89.31,5.84-21.05,12.38-41.73,25.81-59.46,8.34-11,18-18.92,33.05-18.72,7.78.11,11.94,4,12.8,10.17,3.88,27.76,8.43,55.74-5.72,82.29a83.61,83.61,0,0,1-4.91,7.33l-2.05-1a24.91,24.91,0,0,1,1.61-4.76c7.77-13.59,11.66-28.1,10.76-43.82-.55-9.63-.43-19.36-1.79-28.88-.81-5.68-2.47-14.12-6.27-15.87-6.79-3.13-15.63-1.77-22.18,3.46a72.53,72.53,0,0,0-12.05,12.58c-11.1,14.46-17.55,31.1-22.54,48.51C254,246.75,246,280.72,229.77,311.83c-.17.34,0,.86,0,2,18-4.83,35.51-12.17,56.72-9.85-2.77,3.2-4.06,5.46-6,6.8-21.14,14.71-42.3,29.42-63.65,43.84-11.12,7.52-22.75,14.05-31.6,24.76-3.62,4.38-8.6,10.94-16.77,6.58-.56-.3-2,.77-2.88,1.4q-33.27,24-66.5,48A2.76,2.76,0,0,0,98,437.94c8.26-5.15,16.46-10.4,24.8-15.42,35.45-21.34,72.11-40.21,111.61-53,7.21-2.32,14.84-3.45,22.36-4.58,2.31-.35,4.9,1.13,7.37,1.78-1.21,2.14-1.89,5-3.69,6.31-17.89,13.15-36.26,25.67-53.91,39.14-23.69,18.08-46.86,36.84-70.24,55.33a3.85,3.85,0,0,0-1.4,3.23c7.28-4.17,14.65-8.2,21.84-12.52,22-13.23,45.1-24.11,69.78-31.42A64.62,64.62,0,0,1,237,424.34c1.9-.24,3.95.77,5.94,1.21-.92,1.65-1.44,3.81-2.82,4.85-8,6.1-16.33,11.84-24.41,17.87-9.11,6.8-18.09,13.78-28.22,21.51l8.4-.46,1,1.87-23.46,20.29-2.22-2.23,12.1-12.13c-4.2-3.14-2.29-6.3.73-8.78,9.71-7.95,19.53-15.79,29.49-23.43C220.32,439.66,227.46,434.8,236,428.7ZM277.4,309.83c-.45-.93-.89-1.87-1.34-2.81-16.72,1.65-32.67,6.49-48.38,12.26A6,6,0,0,0,224.9,322c-6.15,11.22-12.2,22.51-19.3,35.67Z"/><path class="cls-1" d="M187.93,55.79c-2.62-4,.85-6.35,4.07-8.56,12.2-8.37,24.52-16.56,36.69-25,6.82-4.72,13.38-9.83,20.21-14.54,1.49-1,3.6-1.18,5.43-1.73.47,2.07,1.91,4.54,1.25,6.12-3.89,9.24-7.92,18.47-12.59,27.34S232.78,56.34,228.08,65c-2.52,4.65-4,9.86-6.07,14.75a24.1,24.1,0,0,1-2.6,3.85L217,82.54c1.58-4.84,2.49-10,4.88-14.43,7.52-13.76,15.71-27.15,23.39-40.82a47.39,47.39,0,0,0,5.61-15.74Z"/><path class="cls-1" d="M13.73,50c2.5.38,4.74.41,6.79,1.08q24.95,8.07,49.84,16.36c5.82,1.93,10,5.59,13.09,11.73-1.83.11-2.75.44-3,.15-9.86-10.4-23.84-11.77-36.26-16.43C35.43,59.58,26.36,57.19,16.05,54c4.22,23.92,21,41.62,26.64,64.25C34.52,114.6,11.86,61.44,13.73,50Z"/></svg>